<svg width="18" height="18" viewBox="0 0 18 18" fill="none" xmlns="http://www.w3.org/2000/svg">
<path fill-rule="evenodd" clip-rule="evenodd" d="M6.40465 1.80202C8.85691 -0.545334 12.822 -0.545334 15.2742 1.80202C17.7419 4.16412 17.7419 8.00565 15.2742 10.3678L8.65086 16.7078C6.90914 18.375 4.0961 18.375 2.35438 16.7078C0.597244 15.0258 0.597242 12.287 2.35438 10.6051L8.88246 4.35627C9.91363 3.36921 11.5747 3.36921 12.6058 4.35627C13.6524 5.35808 13.6524 6.99414 12.6058 7.99595L6.0301 14.2903C5.78074 14.529 5.38511 14.5204 5.14643 14.271C4.90774 14.0217 4.91639 13.626 5.16574 13.3874L11.7415 7.09296C12.2739 6.58334 12.2739 5.76888 11.7415 5.25925C11.1937 4.73488 10.2946 4.73488 9.74681 5.25925L3.21873 11.508C1.97579 12.6978 1.97579 14.615 3.21873 15.8048C4.47709 17.0093 6.52814 17.0093 7.7865 15.8048L14.4099 9.46476C16.3634 7.59485 16.3634 4.57492 14.4099 2.705C12.441 0.820337 9.23791 0.820337 7.269 2.705L1.93218 7.8135C1.68283 8.05219 1.28719 8.04354 1.04851 7.79419C0.809821 7.54483 0.818469 7.1492 1.06782 6.91051L6.40465 1.80202Z" fill="#5C5C7B"/>
</svg>
