<svg width="20" height="20" viewBox="0 0 20 20" fill="none" xmlns="http://www.w3.org/2000/svg">
<path d="M7.5 4.37484C7.15482 4.37484 6.875 4.65466 6.875 4.99984C6.875 5.34502 7.15482 5.62484 7.5 5.62484H12.5C12.8452 5.62484 13.125 5.34502 13.125 4.99984C13.125 4.65466 12.8452 4.37484 12.5 4.37484H7.5Z" fill="#b91c1c"/>
<path fill-rule="evenodd" clip-rule="evenodd" d="M9.95209 1.0415C8.22495 1.04149 6.8643 1.04148 5.80107 1.18598C4.70935 1.33435 3.83841 1.64541 3.15403 2.3372C2.47058 3.02806 2.1641 3.90568 2.01775 5.00601C1.87498 6.07943 1.87499 7.45369 1.875 9.20073V13.449C1.87499 14.7053 1.87498 15.7 1.95501 16.4488C2.03409 17.1889 2.20373 17.8565 2.6882 18.303C3.07688 18.6612 3.56842 18.887 4.09304 18.9471C4.74927 19.0222 5.36199 18.7088 5.96557 18.2813C6.57636 17.8486 7.3173 17.1933 8.25212 16.3664L8.28254 16.3395C8.71593 15.9562 9.00935 15.6975 9.25416 15.5185C9.49076 15.3455 9.63522 15.2829 9.75698 15.2584C9.91743 15.2261 10.0826 15.2261 10.243 15.2584C10.3648 15.2829 10.5092 15.3455 10.7458 15.5185C10.9906 15.6975 11.2841 15.9562 11.7175 16.3395L11.7479 16.3665C12.6827 17.1933 13.4237 17.8486 14.0344 18.2813C14.638 18.7088 15.2507 19.0222 15.907 18.9471C16.4316 18.887 16.9231 18.6612 17.3118 18.303C17.7963 17.8565 17.9659 17.1889 18.045 16.4488C18.125 15.7 18.125 14.7053 18.125 13.449V9.20071C18.125 7.45369 18.125 6.07942 17.9823 5.00601C17.8359 3.90569 17.5294 3.02806 16.846 2.3372C16.1616 1.64541 15.2907 1.33435 14.1989 1.18598C13.1357 1.04148 11.7751 1.04149 10.0479 1.0415H9.95209ZM4.04267 3.21631C4.45664 2.79785 5.01876 2.55379 5.9694 2.42459C6.93871 2.29286 8.21438 2.2915 10 2.2915C11.7856 2.2915 13.0613 2.29286 14.0306 2.42459C14.9812 2.55379 15.5434 2.79785 15.9573 3.21631C16.3722 3.6357 16.6149 4.20666 16.7432 5.17082C16.8737 6.15227 16.875 7.44337 16.875 9.24777V13.4089C16.875 14.7142 16.8741 15.6416 16.8021 16.316C16.7282 17.0072 16.592 17.2665 16.4647 17.3838C16.2699 17.5634 16.0248 17.6754 15.7649 17.7052C15.5985 17.7242 15.3196 17.6598 14.757 17.2612C14.2081 16.8725 13.5176 16.2629 12.5456 15.4032L12.5238 15.3839C12.1177 15.0248 11.781 14.7269 11.4837 14.5095C11.1728 14.2822 10.8594 14.1075 10.4899 14.033C10.1665 13.9679 9.83352 13.9679 9.51015 14.033C9.14064 14.1075 8.82715 14.2822 8.51633 14.5095C8.21902 14.7269 7.88226 15.0248 7.47621 15.3839L7.45439 15.4032C6.48239 16.2629 5.79189 16.8725 5.24304 17.2612C4.68038 17.6598 4.40151 17.7242 4.23515 17.7052C3.97516 17.6754 3.73014 17.5634 3.53531 17.3838C3.40803 17.2665 3.27179 17.0072 3.19793 16.316C3.12587 15.6416 3.125 14.7142 3.125 13.4089V9.24777C3.125 7.44336 3.1263 6.15227 3.25684 5.17082C3.38508 4.20666 3.62777 3.6357 4.04267 3.21631Z" fill="#b91c1c"/>
</svg>
