<svg width="20" height="20" viewBox="0 0 20 20" fill="none" xmlns="http://www.w3.org/2000/svg">
<path fill-rule="evenodd" clip-rule="evenodd" d="M9.95202 1.0415L11.2498 1.0415C11.595 1.0415 11.8748 1.32133 11.8748 1.6665C11.8748 2.01168 11.595 2.2915 11.2498 2.2915H9.99984C8.01798 2.2915 6.59447 2.29283 5.51115 2.43848C4.44582 2.58171 3.80355 2.85412 3.32883 3.32883C2.85412 3.80355 2.58171 4.44581 2.43848 5.51115C2.29283 6.59447 2.2915 8.01798 2.2915 9.99984C2.2915 11.9817 2.29283 13.4052 2.43848 14.4885C2.58171 15.5539 2.85412 16.1961 3.32883 16.6708C3.80355 17.1456 4.44582 17.418 5.51115 17.5612C6.59447 17.7068 8.01798 17.7082 9.99984 17.7082C11.9817 17.7082 13.4052 17.7068 14.4885 17.5612C15.5539 17.418 16.1961 17.1456 16.6708 16.6708C17.1456 16.1961 17.418 15.5539 17.5612 14.4885C17.7068 13.4052 17.7082 11.9817 17.7082 9.99984V8.74984C17.7082 8.40466 17.988 8.12484 18.3332 8.12484C18.6783 8.12484 18.9582 8.40466 18.9582 8.74984V10.0476C18.9582 11.9713 18.9582 13.4788 18.8 14.6551C18.6382 15.859 18.3004 16.809 17.5547 17.5547C16.809 18.3004 15.859 18.6382 14.6551 18.8C13.4788 18.9582 11.9713 18.9582 10.0476 18.9582H9.95203C8.02836 18.9582 6.52083 18.9582 5.34459 18.8C4.14065 18.6382 3.19063 18.3004 2.44495 17.5547C1.69928 16.809 1.36149 15.859 1.19963 14.6551C1.04148 13.4788 1.04149 11.9713 1.0415 10.0477V9.95202C1.04149 8.02836 1.04148 6.52083 1.19963 5.34459C1.36149 4.14064 1.69928 3.19063 2.44495 2.44495C3.19063 1.69928 4.14065 1.36149 5.34459 1.19963C6.52083 1.04148 8.02836 1.04149 9.95202 1.0415ZM13.9753 1.89643C15.1152 0.756528 16.9633 0.756528 18.1032 1.89643C19.2431 3.03634 19.2431 4.88449 18.1032 6.02439L12.5632 11.5645C12.2538 11.8739 12.0599 12.0678 11.8437 12.2365C11.5889 12.4352 11.3133 12.6055 11.0216 12.7445C10.774 12.8625 10.514 12.9492 10.0988 13.0875L7.67839 13.8943C7.23152 14.0433 6.73884 13.927 6.40576 13.5939C6.07269 13.2608 5.95638 12.7682 6.10534 12.3213L6.91214 9.90086C7.05049 9.48572 7.13716 9.22566 7.25517 8.97805C7.39416 8.6864 7.56451 8.41076 7.76321 8.15602C7.93191 7.93973 8.12575 7.74591 8.43521 7.4365L13.9753 1.89643ZM17.2194 2.78032C16.5676 2.12857 15.5109 2.12857 14.8592 2.78032L14.5453 3.09417C14.5642 3.17405 14.5907 3.26923 14.6275 3.37539C14.747 3.71961 14.9729 4.17293 15.3998 4.59983C15.8267 5.02673 16.2801 5.25272 16.6243 5.37215C16.7304 5.40898 16.8256 5.43544 16.9055 5.45436L17.2194 5.14051C17.8711 4.48876 17.8711 3.43207 17.2194 2.78032ZM15.9208 6.43908C15.4908 6.25416 14.99 5.95772 14.516 5.48371C14.042 5.00971 13.7455 4.50885 13.5606 4.07888L9.34776 8.29172C9.00066 8.63881 8.86454 8.77646 8.74885 8.92479C8.60599 9.10795 8.48351 9.30613 8.38357 9.51582C8.30264 9.68563 8.2404 9.86895 8.08517 10.3346L7.72526 11.4144L8.58531 12.2744L9.66505 11.9145C10.1307 11.7593 10.314 11.697 10.4839 11.6161C10.6935 11.5162 10.8917 11.3937 11.0749 11.2508C11.2232 11.1351 11.3609 10.999 11.708 10.6519L15.9208 6.43908Z" fill="#FFB620"/>
</svg>
